<?xml version="1.0" encoding="UTF-8"?>
<svg width="20px" height="22px" viewBox="0 0 20 22" version="1.1" xmlns="http://www.w3.org/2000/svg" xmlns:xlink="http://www.w3.org/1999/xlink">
    <!-- Generator: Sketch 64 (93537) - https://sketch.com -->
    <title>Icons/CA-mapleleaf</title>
    <desc>Created with Sketch.</desc>
    <g id="Icons/CA-mapleleaf" stroke="none" stroke-width="1" fill="none" fill-rule="evenodd">
        <path d="M9.73333333,21.9192825 L9.73333333,21.2107623 L9.78666667,20.0538117 C9.78666667,19.4887892 9.83111111,18.9327354 9.85777778,18.3766816 C9.85777778,18.0089686 9.85777778,17.632287 9.85777778,17.264574 C9.85777778,17.1121076 9.85777778,16.9686099 9.85777778,16.8161435 C9.84295193,16.6086679 9.70072247,16.4328742 9.50222222,16.3766816 C9.41951284,16.3674259 9.33604271,16.3674259 9.25333333,16.3766816 L8.09777778,16.529148 L6.88,16.6995516 L5.54666667,16.896861 L4.65777778,17.0134529 C4.65273097,16.9898077 4.65273097,16.9653493 4.65777778,16.941704 C4.78222222,16.5112108 4.91555556,16.0896861 5.04,15.6591928 C5.13358277,15.3987346 5.04689248,15.1071753 4.82666667,14.941704 L2.66666667,13.1479821 L0,10.9955157 L0.0533333333,10.9955157 L1.06666667,10.5201794 C1.15309376,10.4933837 1.22526576,10.432746 1.26703174,10.3518361 C1.30879773,10.2709262 1.31667073,10.1764991 1.28888889,10.0896861 C1.23555556,9.84753363 1.16444444,9.59641256 1.10222222,9.35426009 L0.435555556,6.9058296 C0.435555556,6.9058296 0.435555556,6.86098655 0.435555556,6.83408072 L0.533333333,6.83408072 L3.2,7.40807175 C3.43226612,7.45930361 3.66335944,7.31703289 3.72444444,7.08520179 C3.84,6.69058296 3.94666667,6.28699552 4.06222222,5.88340807 C4.06222222,5.88340807 4.06222222,5.88340807 4.06222222,5.82959641 L4.10666667,5.88340807 L6.31111111,8.37668161 C6.41713675,8.506926 6.57122775,8.58790151 6.73777778,8.60089686 C6.86514168,8.60683143 6.98249699,8.531481 7.03111111,8.41255605 C7.06570623,8.28942141 7.06570623,8.15900908 7.03111111,8.03587444 L6.87111111,7.13901345 C6.73777778,6.44843049 6.61333333,5.75784753 6.48,5.06726457 C6.34666667,4.37668161 6.22222222,3.68609865 6.09777778,2.9955157 C6.09777778,2.91479821 6.09777778,2.83408072 6.05333333,2.74439462 L6.11555556,2.74439462 L7.36888889,3.39910314 C7.48055051,3.46417898 7.60490815,3.50396309 7.73333333,3.51569507 C7.91950867,3.55022409 8.10734887,3.46440151 8.20444444,3.30044843 L8.26666667,3.20179372 C8.83555556,2.13452915 9.40444444,1.06726457 9.96444444,-2.30926389e-14 L11.6711111,3.21973094 C11.7432761,3.39189954 11.9042382,3.50938458 12.0888889,3.52466368 C12.2086502,3.53140586 12.3280966,3.50668429 12.4355556,3.4529148 C12.5511111,3.40807175 12.6577778,3.34529148 12.7644444,3.29147982 L13.8222222,2.73542601 C13.8222222,2.73542601 13.8222222,2.73542601 13.8755556,2.73542601 C13.9288889,2.73542601 13.8755556,2.89686099 13.8755556,2.97757848 C13.68,4.03587444 13.4844444,5.11210762 13.28,6.1793722 L12.96,7.89237668 C12.9238792,8.03659719 12.9238792,8.18761805 12.96,8.33183857 C12.9739273,8.43171154 13.0333098,8.51928061 13.1205257,8.56855954 C13.2077416,8.61783847 13.3127703,8.62316543 13.4044444,8.58295964 C13.5218199,8.54771836 13.6267102,8.47923947 13.7066667,8.38565022 L15.9111111,5.89237668 L15.9111111,5.83856502 C15.9555556,5.99103139 15.9911111,6.13452915 16.0355556,6.2690583 C16.1066667,6.5470852 16.1866667,6.8161435 16.2666667,7.0941704 C16.3277517,7.3260015 16.558845,7.46827222 16.7911111,7.41704036 L19.5288889,6.83408072 L19.5822222,6.83408072 C19.5798647,6.86093397 19.5798647,6.88794495 19.5822222,6.91479821 C19.3066667,7.91928251 19.0311111,8.92376682 18.7644444,9.91928251 C18.7416447,10.0135139 18.726777,10.1095206 18.72,10.206278 C18.7100859,10.3165352 18.7659499,10.4222198 18.8622222,10.4753363 C18.9189376,10.5076165 18.9784412,10.5346333 19.04,10.5560538 L20,11.0134529 L15.4577778,14.9506726 C15.2241213,15.1185181 15.1296771,15.422717 15.2266667,15.6950673 C15.36,16.1165919 15.4844444,16.5919283 15.6177778,16.9686099 C15.6148597,16.9894331 15.6148597,17.0105669 15.6177778,17.0313901 L15.3155556,17.0313901 C14.8,16.9596413 14.2844444,16.896861 13.7688889,16.8161435 L12.4088889,16.6188341 L11.1377778,16.4484305 C11.0312902,16.4396102 10.9242653,16.4396102 10.8177778,16.4484305 C10.7677621,16.4399005 10.7166823,16.4399005 10.6666667,16.4484305 C10.5055562,16.5420383 10.4095739,16.7184312 10.4177778,16.9058296 L10.4711111,19.0313901 C10.4711111,20 10.5244444,20.9686099 10.5422222,21.9372197 L9.73333333,21.9192825 Z" id="Path-Copy" fill="#FFFFFF" fill-rule="nonzero"></path>
    </g>
</svg>