<svg id="Layer_1" data-name="Layer 1" xmlns="http://www.w3.org/2000/svg" viewBox="0 0 108 66"><defs><style>.cls-1{fill:none;stroke:#eef0da;stroke-linecap:round;stroke-linejoin:round;}.cls-2{fill:#eef0da;}</style></defs><path class="cls-1" d="M38,11a9,9,0,0,0-18,0"/><path class="cls-1" d="M88,11a9,9,0,0,0-18,0"/><path class="cls-2" d="M12.09,39.52a2.68,2.68,0,0,1,0,4,2.2,2.2,0,0,1-2.58.32,2.38,2.38,0,0,1-.59,2.93,2.76,2.76,0,0,1-4-.48L2.54,43.74l7.39-6.62ZM5.62,45.37A1.63,1.63,0,0,0,8,45.7a1.57,1.57,0,0,0,0-2.42L6.74,41.82,4.35,44ZM8.75,42.3a1.58,1.58,0,1,0,2.3-2.13L10,38.94,7.61,41Z"/><path class="cls-2" d="M20,45.66a5,5,0,0,1,1.5,7A5,5,0,1,1,13,47.42,5,5,0,0,1,20,45.66Zm-4.8,7.72A3.58,3.58,0,0,0,20.26,52a3.6,3.6,0,1,0-6.08-3.79A3.58,3.58,0,0,0,15.15,53.38Z"/><path class="cls-2" d="M29.56,61.05l-2.39-9.41L24.5,59.28l-1.3-.46,3.28-9.37,1.73.61,2.16,8.83,2.52-7.19,1.29.45L30.9,61.52Z"/><path class="cls-2" d="M48.11,54.44l1.43.16L44.64,64l-1.35-.15L40.67,53.61l1.45.16,2.07,8.45Z"/><path class="cls-2" d="M55.93,54.33a5.18,5.18,0,1,1-4.82,5.32A5,5,0,0,1,55.93,54.33Zm.29,9.08a3.6,3.6,0,0,0,3.46-4,3.6,3.6,0,1,0-7.17.22A3.59,3.59,0,0,0,56.22,63.41Z"/><path class="cls-2" d="M62.07,54.21l1.63-.28L67,57.85l1.79-4.8,1.54-.27L67.84,59l.73,4.18-1.35.23-.73-4.18Z"/><path class="cls-2" d="M79.47,57.44l-4.18,1.34-.15,3-1.4.45.72-10.65,1.5-.49,6.8,8.24-1.41.45Zm-4.11,0,3.26-1.05-3-3.7Z"/><path class="cls-2" d="M92.8,54.15,92,53a3.5,3.5,0,0,1-2,2.94,4.8,4.8,0,0,1-6.72-2.2,4.89,4.89,0,0,1,1.81-6.9,4.41,4.41,0,0,1,5.29.5l-.83,1.07a3.14,3.14,0,0,0-3.85-.47c-1.56.86-2.46,2.82-1.19,5.12s3.37,2.63,4.92,1.77a2.81,2.81,0,0,0,1.44-3.74l-3,1.66-.59-1.08,4.15-2.29,2.35,4.25Z"/><path class="cls-2" d="M97.83,50.5l-6.75-7.27,4.42-4.11.87.93L93,43.23,95,45.46l3.1-2.88.87,1L95.91,46.4,98,48.63l3.42-3.17.86.93Z"/><path class="cls-2" d="M103.4,40.13l-.53.77L96.8,37.24l.92-1.37Zm.62,1a.93.93,0,0,1,1.28-.24.92.92,0,0,1-1,1.52A.93.93,0,0,1,104,41.12Z"/></svg>