<?xml version="1.0" encoding="UTF-8"?>
<svg width="175px" height="54px" viewBox="0 0 175 54" version="1.1" xmlns="http://www.w3.org/2000/svg" xmlns:xlink="http://www.w3.org/1999/xlink">
    <!-- Generator: Sketch 64 (93537) - https://sketch.com -->
    <title>Illustrations/Footer-Plane</title>
    <desc>Created with Sketch.</desc>
    <g id="Illustrations/Footer-Plane" stroke="none" stroke-width="1" fill="none" fill-rule="evenodd">
        <g id="Illustrations---Right" fill="#EEF0DA">
            <path d="M156.62218,9.20505663 C155.343176,5.13054587 148.144621,7.47763633 143.305566,9.2576927 C143.293679,9.21941192 143.280604,9.17993486 143.252076,9.14285035 C141.073253,6.23949228 138.37855,3.54907106 136.868945,0.1911287 C136.823776,0.0894453727 136.720362,-0.0206118761 136.594363,0.00331361279 C136.457667,0.0284353761 136.32097,0.0535571394 136.185463,0.0810714516 C136.108199,0.0966230193 136.053521,0.177969681 136.035691,0.248549874 C135.998842,0.389710258 135.97388,0.467468097 135.966748,0.528478093 C135.870466,0.502160055 135.748034,0.55718868 135.764675,0.678012398 C136.005974,2.52266759 136.44578,4.33382709 136.910548,6.13302386 C137.283789,7.57214201 137.62137,9.38449779 138.492661,10.6477636 C137.561937,10.7123624 136.591986,11.072441 135.71594,11.3152847 C134.668726,11.6047832 133.648852,11.987591 132.71575,12.5522325 C132.580242,12.6347755 132.575487,12.8871894 132.737146,12.9481994 C133.405175,13.2030058 134.023281,12.9912652 134.713895,12.8477123 C135.921579,12.5976909 137.134017,12.3715951 138.323871,12.0414233 C138.02195,13.164725 138.000554,14.5153189 138.834997,15.1732698 C130.949393,16.7021086 122.93898,17.1243934 114.923812,18.0909832 C114.869134,18.0969646 114.8727,18.1771149 114.928567,18.1771149 C125.086898,18.1807038 136.093935,16.895905 145.868328,13.9889581 C146.176192,13.896845 146.019288,13.4207278 145.710235,13.5128409 C143.564695,14.1504552 141.407268,14.6624606 139.240332,15.0943157 C139.020429,14.4949822 138.67215,14.0344165 138.585377,13.360914 C138.486718,12.5941021 138.714942,11.7902057 138.957429,11.0580857 C139.082239,11.0521044 139.195162,10.971954 139.173766,10.8104569 C138.975259,9.37253505 138.227589,7.95973493 137.774708,6.57684167 C137.155413,4.68433551 136.700155,2.74278209 136.13435,0.83472435 C136.582477,0.177969681 136.832096,1.39099197 137.087659,1.84079116 C137.672483,2.86958718 138.35121,3.84813967 139.023995,4.82071079 C140.119944,6.4069707 141.205195,8.13080218 142.528179,9.54599484 C141.225402,10.0316823 140.150849,10.4396118 139.503027,10.605894 C139.49114,10.6082865 139.497083,10.6262307 139.50897,10.6238381 C140.505071,10.4109013 141.582002,10.0795332 142.700535,9.71586581 C142.908552,9.85941875 143.176001,9.73261365 143.279415,9.52685445 C147.134256,8.25401844 151.4396,6.72278716 154.874842,8.0267263 C156.997798,8.83301527 156.768385,12.8477123 155.021048,13.9303407 C153.951249,14.594273 152.517719,14.8933416 151.332621,15.2677755 C148.595125,16.1326819 145.825536,16.8301099 143.001268,17.3301526 C142.871703,17.065776 142.702913,16.8229323 142.506783,16.6195656 C142.799195,16.5657333 143.093984,16.4748164 143.380452,16.4257692 C143.732297,16.3671517 144.084141,16.2989641 144.400326,16.1278968 C144.457382,16.0967937 144.420534,16.0118582 144.362289,16.0130545 C143.965275,16.0190359 143.570638,16.0944011 143.181945,16.1697664 C142.888344,16.2259913 142.559084,16.2738423 142.290446,16.4221803 C141.999223,16.1912994 141.666397,16.0525315 141.316929,16.0680831 C141.270571,16.0704757 141.2361,16.0991862 141.213516,16.1350745 C140.109246,15.6996306 138.89443,16.0166433 138.064742,16.8384838 C138.044535,16.834895 138.025516,16.8277174 138.000554,16.8289136 C130.607058,17.1889923 123.227826,18.3134902 115.8165,18.2500877 C115.797481,18.2500877 115.799858,18.2787983 115.817688,18.2787983 C119.736717,18.4821649 123.617708,18.3493785 127.49751,18.1101236 C127.284739,18.2943498 127.131401,18.521642 127.187269,18.7704671 C127.208665,18.8697578 127.327531,18.8841131 127.402417,18.8458324 C127.554566,18.7680745 127.602113,18.6245216 127.684131,18.4797724 C127.766149,18.3362194 127.867185,18.203433 127.976542,18.0790204 C129.855822,17.9581967 131.735101,17.8182326 133.617946,17.675876 C133.535928,17.7691854 133.459854,17.8672799 133.403987,17.9773371 C133.209046,18.3577524 133.781982,18.6520359 133.987621,18.2799945 C134.105299,18.0670577 134.208713,17.8457469 134.313315,17.6244362 C135.410453,17.5418932 136.50878,17.4617428 137.609483,17.3887701 C136.807134,18.643662 138.080195,19.8243849 139.27718,19.964349 C140.092604,20.0588546 140.940123,19.9499937 141.746037,19.8184035 C142.189409,19.7454307 142.793251,19.7167202 143.067833,19.3052017 C143.304377,18.9511045 143.340037,18.4773798 143.237812,18.0012626 C146.802618,17.5574448 150.475593,16.2343652 153.814553,15.0249318 C156.256071,14.1396887 157.453057,11.852412 156.62218,9.20505663 M135.616071,12.7377353 C135.11142,12.8480924 134.454444,13.0548176 133.884676,12.9864273 C134.64049,12.5605423 135.41142,12.2139278 136.205606,11.9092801 C137.068397,11.5797632 138.045141,11.4585259 138.884676,11 C138.788164,11.2828871 138.697467,11.5984151 138.621885,11.9388123 C137.631188,12.2698835 136.624211,12.5170212 135.616071,12.7377353 M142.493092,19.526947 C141.622318,19.8767347 140.633552,19.9928586 139.721481,19.9999393 C138.496733,20.0098524 137.280245,18.8032969 138.217094,17.3701583 C138.835368,16.4227573 140.12737,15.8987837 141.142094,16.0163237 C141.045341,16.0361498 140.947409,16.0687211 140.849476,16.1112055 C140.519101,16.087131 140.240642,16.2768944 140.021178,16.5700364 C139.780477,16.7300608 139.569273,16.9608924 139.441842,17.2427052 C139.306152,17.5457602 139.304972,17.865809 139.386386,18.1603671 C139.392286,18.6149496 139.60113,19.0256317 140.096693,19.2153951 C140.149789,19.2352211 140.211144,19.2408857 140.26778,19.2550471 C140.566297,19.4348975 140.895493,19.5326115 141.225868,19.4462267 C141.582201,19.3541773 141.819363,18.970402 141.916116,18.5653846 C141.925555,18.5356455 141.936174,18.5059065 141.943253,18.4761674 C142.082483,18.3600436 142.191035,18.198603 142.233512,17.9663553 C142.285428,17.6817101 142.303126,17.3984812 142.272449,17.1279975 C142.344423,17.2186308 142.416398,17.309264 142.482473,17.4168911 C142.493092,17.4367171 142.506071,17.46504 142.51787,17.4862822 C142.25947,17.6944555 142.318465,18.2594973 142.696037,18.2170129 C142.730254,18.2127645 142.764472,18.2042676 142.798689,18.2000192 C142.940278,18.7395704 142.949718,19.3428481 142.493092,19.526947 M174.301852,4.08670854 C174.219065,4.15772298 174.132729,4.21926884 174.048759,4.28673256 C168.674672,6.92255198 163.18823,9.29680154 157.700606,11.6817033 C157.684048,11.6888047 157.692327,11.7148433 157.710067,11.7089255 C161.352714,10.3383467 164.958699,8.87071488 168.529202,7.32260001 C166.228894,8.5002562 164.074056,9.9738059 161.80568,11.2189258 C161.734719,11.19052 161.663759,11.1632978 161.591615,11.1396263 C161.510011,11.1147713 161.437867,11.1632978 161.398839,11.2307615 C160.254007,10.9147473 159.054772,12.0083697 158.40903,12.9942869 C157.846075,13.1741901 157.402571,13.6570884 156.912943,13.9695519 C156.850261,14.0097934 156.902299,14.0938272 156.967346,14.0796243 C157.320966,14.002692 157.707702,13.8642138 158.055409,13.6724748 C157.565781,14.9128604 158.295493,15.9141641 159.629553,15.9946471 C160.924585,16.072763 162.372183,15.2868698 163.088885,14.2287546 C163.894289,13.0380791 163.053405,11.7834906 161.909756,11.2650852 C164.557771,10.0755933 166.99527,8.49433833 169.650381,7.34035362 C171.4788,6.54499186 173.294211,5.89284255 174.784384,4.52108022 C175.095429,4.23347172 174.611714,3.81803723 174.301852,4.08670854 M162.726041,12.1793888 C163.02284,12.6080513 162.860368,13.1013533 162.589156,13.4948609 C162.014749,14.3272373 160.807086,14.847756 159.751661,14.9781692 C159.265526,15.0371386 158.78067,14.9804372 158.355941,14.7615699 C157.656162,14.4009491 157.872364,13.6003255 158.135901,13.0707346 C158.194749,12.9516617 158.26511,12.8393929 158.336751,12.7282582 C158.355941,12.7101138 158.381527,12.6965054 158.398158,12.677227 C158.417347,12.6556804 158.422465,12.6284638 158.422465,12.6001131 C159.054441,11.7144375 160.094514,11.123609 161.261239,11 C161.271473,11.0260826 161.280428,11.0521653 161.308573,11.0703097 C161.430107,11.1462896 161.545244,11.2154653 161.660382,11.2835069 C161.48,11.246084 161.291942,11.2336097 161.103885,11.247218 C161.015613,11.2426819 160.927341,11.2494861 160.840348,11.2608264 C160.697066,11.2698986 160.56146,11.2993833 160.436088,11.3515486 C160.335023,11.3821673 160.235238,11.4161882 160.143128,11.4615493 C159.935881,11.5624777 159.788761,11.7155715 159.687696,11.8913458 C159.411366,12.2100076 159.260408,12.6352679 159.378104,13.0185693 C159.485566,13.3689839 159.777247,13.5663047 160.122659,13.6660991 C160.846745,14.0357922 161.88298,13.825997 162.334574,13.2385707 C162.642887,12.9459915 162.804079,12.5422777 162.711969,12.1623784 C162.715807,12.1680485 162.722203,12.1725846 162.726041,12.1793888 M140.967594,13.6825757 C141.168509,14.0112807 141.782018,13.9338637 141.826267,13.4998207 C141.834639,13.4236729 141.829855,13.357678 141.827463,13.2904141 C141.996088,14.0125498 142.993489,13.9402093 143.030562,13.1584244 C143.044913,13.1761922 143.061656,13.1914218 143.077203,13.2066514 C143.290078,13.512512 143.708651,13.4896677 143.891627,13.1660392 C143.896411,13.173654 143.898803,13.1825379 143.904782,13.1901527 C144.206155,13.608966 144.935668,13.4490555 144.881852,12.8512946 C144.851954,12.5213204 144.683329,12.2332276 144.416638,12.1037762 C144.416638,12.1037762 144.415442,12.102507 144.415442,12.102507 C144.25758,11.9324434 143.935876,11.9806704 143.831831,12.1976919 C143.546005,11.9413274 142.962395,12.0555492 142.921733,12.50736 C142.920537,12.5124365 142.920537,12.5162439 142.920537,12.5213204 C142.619165,12.044127 141.747336,12.1976919 141.783214,12.9147512 C141.78441,12.9414029 141.786802,12.9693238 141.787998,12.9959756 C141.780822,12.9642473 141.779626,12.9363264 141.770059,12.903329 C141.691128,12.6228509 141.328763,12.4756317 141.101538,12.6571175 C140.984337,12.7497641 140.83963,12.7726084 140.688944,12.7865689 C140.623168,12.7231123 140.550217,12.6647323 140.465306,12.6126979 C140.076631,12.372832 139.758515,12.8830229 139.934316,13.2371105 C139.967802,13.3056436 139.954647,13.4236729 139.961822,13.5010899 C140.019227,14.1128112 140.809732,14.1483469 140.967594,13.6825757 M144.889139,12.3246532 C144.909167,12.129765 144.961239,12.0189004 145.031335,11.8450181 C145.113449,11.6384599 145.341764,11.5824441 145.502986,11.6828057 C145.515003,11.6734697 145.531025,11.6688017 145.541039,11.6571318 C145.75934,11.3945578 146.119837,11.4178977 146.300086,11.7236505 C146.330127,11.7738313 146.346149,11.8286801 146.365176,11.8811949 C146.363173,11.85202 146.353159,11.8240122 146.353159,11.7925033 C146.357165,11.2988642 146.786757,11.1378188 147.059133,11.332707 C147.088173,11.3023652 147.11521,11.2708563 147.133235,11.2381804 C147.236378,11.0479601 147.44867,10.9242586 147.634927,11.0526281 C147.65095,11.0631311 147.666972,11.074801 147.682994,11.085304 C148.170667,11.4202317 147.670977,12.1706098 147.269423,11.8006722 C147.270425,11.864857 147.271426,11.9278748 147.259409,11.9897255 C147.166281,12.4740287 146.599499,12.5277105 146.41925,12.1099261 C146.424257,12.1496039 146.434271,12.1881148 146.435272,12.2301266 C146.443283,12.6782529 146.007682,12.9268229 145.714278,12.7891175 C145.639174,12.90465 145.529022,12.9898407 145.379816,12.9991767 C145.048359,13.0190156 144.852088,12.6770859 144.889139,12.3246532 M145.70692,15.4811959 C146.0183,15.4341959 146.332103,15.3841959 146.627732,15.2891959 C146.867628,15.2121959 146.99848,15.5351959 146.753738,15.6031959 C146.122497,15.7781959 145.548202,15.7211959 144.903633,15.6781959 C144.879402,15.6761959 144.87819,15.6421959 144.90121,15.6391959 C145.173819,15.5961959 145.4331,15.5241959 145.70692,15.4811959 M150.899363,10.882042 C150.995952,10.8500966 151.090395,10.8048405 151.186984,10.771564 C150.962683,10.6783898 150.813506,10.261768 150.992733,9.98091429 C151.158008,9.72268862 151.358699,9.52569172 151.596953,9.42053797 C151.958626,9.14367745 152.390058,8.96265327 152.766757,8.74702153 C153.342,8.41958073 153.909731,8.09213994 154.544001,8.00295891 C154.654542,7.98831724 154.745765,8.02958011 154.82411,8.09213994 C154.885283,8.08681569 154.948603,8.08016039 155.010849,8.07483615 C155.229785,8.05353919 155.383255,8.21725959 155.456233,8.42756709 C155.559262,8.5273966 155.616142,8.66982004 155.621508,8.82555408 C155.831859,8.76565637 155.998207,9.15432594 155.786784,9.28743195 C154.909967,9.84248403 153.97627,10.2418021 153.030768,10.5758982 C152.31386,10.8287996 151.643101,11.1389366 150.901509,10.9326223 C150.881118,10.9272981 150.877899,10.8886973 150.899363,10.882042 M108.914256,44.439231 C98.6038075,48.8951334 89.2892771,51.6516031 75.1542831,52.9990303 C74.8188424,53.0310065 74.7883971,52.5122919 75.1263251,52.4710223 C97.380946,49.7205252 121.486877,42.3927447 136.843149,25.008535 C136.863814,24.9842588 136.899065,25.0170317 136.878401,25.0413079 C129.555818,33.7795376 119.286699,39.9566248 108.914256,44.439231 Z M41.3385654,46.7551666 C43.9310184,44.8200958 46.1634507,42.1834955 47.8143698,39.4341359 C49.2628248,37.0230543 50.6846399,33.3330247 49.2597803,30.6048548 C47.9939995,28.1801513 45.5012563,26.8671485 42.8578068,27.7851153 C40.8179436,28.4942124 39.4288577,30.4058233 39.414396,32.4581941 C37.9370175,30.1886292 35.2555109,29.9744622 33.1867243,32.321218 C30.5889433,35.2665821 32.1135127,39.0148832 34.388569,41.5531028 C36.1711658,43.5411479 38.2399524,45.2847549 40.5035916,46.7854376 C38.6395525,48.0764938 36.6126288,49.1011657 34.5331862,49.7746945 C23.0239434,53.5010492 9.88661584,48.0507635 0.137135607,42.1229536 C0.0282921633,42.0563575 -0.0569558488,42.2296587 0.0473207374,42.2970116 C11.4477201,49.6990171 28.6076882,55.7796954 40.9245037,47.0639304 C48.2687721,51.7824156 57.5859232,53.9528432 65.9858969,53.4094795 C66.0056866,53.407966 66.0041644,53.3784518 65.9843746,53.3784518 C57.382698,53.5729427 48.6440156,51.3101887 41.3385654,46.7551666 M38.1592131,44.6684864 C35.6638304,42.7257618 32.5941015,39.9850494 32.0620756,36.6429438 C31.3229829,31.9966585 37.3883802,27.8488253 39.3834772,33.4649249 C39.4771863,33.7288569 39.8603356,33.5972779 39.7870309,33.327154 C38.8000625,29.7126026 42.8371111,26.2915496 46.140357,27.8991349 C49.8116378,29.6855128 49.3498938,34.08799 48.0485464,37.2644609 C46.5605365,40.8983622 43.9049414,44.1096628 40.7150533,46.491242 C39.8421984,45.9153906 38.9867249,45.3132233 38.1592131,44.6684864" id="Plane"></path>
        </g>
    </g>
</svg>
