<?xml version="1.0" encoding="UTF-8"?>
<svg width="175px" height="44px" viewBox="0 0 175 44" version="1.1" xmlns="http://www.w3.org/2000/svg" xmlns:xlink="http://www.w3.org/1999/xlink">
    <!-- Generator: Sketch 64 (93537) - https://sketch.com -->
    <title>Illustrations/Footer-Clouds</title>
    <desc>Created with Sketch.</desc>
    <g id="Illustrations/Footer-Clouds" stroke="none" stroke-width="1" fill="none" fill-rule="evenodd">
        <g id="Illustrations---Left" fill="#EEF0DA">
            <path d="M168.826564,41.6274473 C165.468983,43.1176264 162.216765,43.0951695 158.66672,42.9155139 C154.401609,42.6989647 150.132283,42.493644 145.872792,42.1487694 C137.567344,41.4750609 129.32933,41.4141063 121.004215,41.3579639 C120.998595,41.3579639 120.998595,41.3467354 121.004215,41.3467354 C128.955641,41.2216181 136.751129,40.6858595 144.708175,41.2617198 C152.594978,41.831164 160.934141,43.1256468 168.694508,41.077252 C169.013408,40.9922364 169.122986,41.4959138 168.826564,41.6274473 M172.458618,35.977565 C171.836544,35.580256 169.135727,34.5059 169.106172,33.7545265 C169.086468,33.2315381 168.966838,32.7396317 168.737431,32.2693475 C168.660023,32.1098834 168.451727,32.0977209 168.306764,32.1612363 C168.237801,32.1828585 168.170245,32.2044808 168.10269,32.226103 C168.334912,29.6962987 168.271579,26.2434942 165.296317,25.3258996 C162.537797,24.4745231 159.693425,25.4732012 157.027794,26.2448456 C155.717496,26.6245865 152.317198,27.6584008 150.382011,29.1233088 C148.78601,24.2718145 139.504153,26.2380886 137.426818,29.8206267 C136.651336,31.1571526 135.59015,31.6004089 134.28689,32.288267 C133.859038,32.5139494 133.289038,32.7680109 133.02726,33.1977533 C132.979408,33.2774854 132.962519,33.3288382 132.956889,33.3680286 C132.923111,33.3031618 132.826,33.1991047 132.562815,33.0720739 C132.002666,32.8031471 131.539629,32.7031441 130.91474,32.6558454 C128.87822,32.4977327 126.132366,33.8653406 126,35.9748622 C125.997255,36.0262151 126.080292,36.0370262 126.092959,35.9870247 C126.567255,34.0491298 131.29474,31.9260942 132.607852,34.2748121 C132.752815,34.5356306 133.148297,34.5126569 133.298889,34.2748121 C134.108149,33.003153 136.148891,32.4517854 137.315633,31.4882434 C138.732893,30.3138845 138.827189,28.7111345 140.883413,27.9070568 C143.9206,26.7218867 148.068232,26.6394518 149.754307,29.6706223 C148.87327,30.5692974 148.615714,31.6004089 149.654381,32.723415 C149.726159,32.8004443 149.862678,32.69909 149.803567,32.6139523 C149.161788,31.6977091 149.392603,30.8639007 150.080826,30.1287439 C150.293345,30.208476 150.584678,29.9895506 150.539641,29.7327863 C150.536826,29.7246779 150.535419,29.717921 150.534012,29.7098126 C152.360828,28.2178767 155.93283,27.1975764 157.195275,26.8259438 C158.88135,26.3299832 160.611055,25.8529422 162.360464,25.6272598 C167.40743,24.978592 167.224467,29.5435915 167.417282,32.8963931 C167.420096,33.2855937 167.991504,33.2666743 168.033727,32.8963931 C168.037949,32.8585541 168.042171,32.8180124 168.046393,32.7815248 C168.098467,32.7490914 168.301134,34.2383245 168.423579,34.3572469 C169.113209,35.0194286 169.718394,35.4126835 170.596617,35.8478314 C171.519877,36.2302751 172.298174,36.8113734 172.934322,37.5924775 C174.365656,39.3736111 171.714099,41.5115119 170.022394,40.9128456 C169.745135,40.8141941 169.526987,41.1993406 169.738098,41.3831298 C171.543803,42.9710144 173.943434,41.2358281 173.998323,39.0952245 C174.030693,37.8438362 173.597212,36.7046135 172.458618,35.977565" id="Cloud"></path>
            <path d="M106.949657,15.1292844 C105.035981,18.3495164 99.8546026,18.0704036 96.6200536,17.9191087 C91.0527569,17.6595599 85.6127733,17.0935085 80.0255839,17.5056565 C71.7860377,18.1147486 63.697676,17.4482688 55.459456,17.4039238 C49.8563525,17.3752299 43.5344603,18.3156055 38.1899615,16.2692126 C37.8637216,16.1453074 37.9870562,15.6418608 38.3371673,15.7435935 C44.840746,17.6334745 51.9119289,16.5744108 58.5945417,16.8052658 C62.7733297,16.948735 66.9521176,17.2317607 71.1348842,17.252629 C75.1107669,17.2721929 79.0468642,16.8104829 83.0134637,16.6357113 C88.4348808,16.3983349 93.789989,17.3739257 99.1968181,17.2226308 C100.529627,17.1848071 101.908853,17.1391578 103.200551,16.7804848 C103.52016,16.6917947 106.892631,15.5779518 105.764053,14.7653943 C103.55464,13.1741901 105.337024,9.7778822 102.546745,8.40057761 C99.9832419,7.13674414 97.0576924,7.15761239 94.2833273,6.71416205 C93.5791266,6.6019952 91.5023313,6.59808241 91.7238031,5.47119684 C92.2940598,2.57311844 85.1830915,6.44287479 83.8569131,6.54460751 C82.5519536,6.64503597 80.4221112,5.84812962 79.9619273,4.50343168 C79.5826403,3.3921973 79.2895549,2.11140838 77.9872477,1.79708034 C77.015159,1.56231252 76.0417441,1.32493616 75.0630245,1.11755791 C72.018119,0.475859183 68.3565405,-0.105843322 65.6365487,1.84664244 C63.6008649,3.3087243 62.3396693,4.81384692 59.7164885,5.34729159 C58.1157913,5.67335802 56.4355233,5.36294278 54.8374784,5.72292012 C53.295133,6.06985479 48.1323206,7.62845231 50.6812354,10.6765213 C50.722347,10.7260834 50.6533857,10.7952094 50.6096218,10.7469516 C48.7158391,8.66403928 49.9001164,7.47715749 52.1891002,6.35418472 C53.8269305,5.55206131 55.4249754,5.28207831 57.2405136,5.20382237 C60.1461703,5.07861286 62.3847594,4.31561742 64.478795,2.30183117 C66.3977751,0.456295197 69.4957277,-0.294961849 72.1175823,0.104143457 C74.0206483,0.394994709 77.0947297,0.546289531 78.7617359,1.50622909 C79.6555801,2.02141404 79.9765153,3.04917542 80.2841886,3.94259743 C80.7947673,5.4268518 83.5930036,6.66459996 85.1088255,5.68770494 C85.5583999,5.39815796 86.0291933,5.03687636 86.5437505,4.87123461 C87.5237963,4.55429804 92.4319824,2.64094025 92.2715148,5.152956 C92.1892917,6.42461507 100.353246,6.82502464 101.720536,7.35977358 C102.590509,7.70018693 103.70052,8.13450741 104.219056,8.9640204 C105.386093,10.8291204 104.805226,13.1989711 106.818365,14.636272 C106.980159,14.7523516 107.058403,14.9466872 106.949657,15.1292844 M41.8614725,10.2731388 C39.8497261,6.6496663 46.7000574,7.60000375 48.8376234,7.97192901 C49.0003683,8.00053865 49.0701162,7.78658833 48.9073712,7.74429583 C47.0009304,7.25171254 43.0061575,6.31878965 41.358194,7.80649068 C40.7906381,8.31773243 40.638834,9.00436367 40.9738971,9.68975102 C41.4005897,10.5629668 39.580308,10.4609673 38.8869325,10.8005512 C37.7737024,11.3453782 36.8915975,11.9922047 36.0300066,12.8405426 C35.9383771,12.9313471 36.0765051,13.053249 36.1777079,12.9748835 C37.8065249,11.7123278 39.3984166,10.5306255 41.6549642,10.5990399 C41.8464288,10.6052594 41.9380583,10.4136992 41.8614725,10.2731388" id="Cloud"></path>
            <g id="Cloud" transform="translate(0.000000, 5.000000)">
                <path d="M35.0139598,16.1587937 C34.781307,16.1703628 34.5486542,16.1828218 34.3168443,16.1997304 C34.0378296,16.2210887 33.7579718,16.2468967 33.4798,16.2727046 C32.9141839,16.3252104 32.330866,16.3794961 31.7542917,16.3892853 C30.8691995,16.4044141 29.9916938,16.3403392 29.2499022,16.2744845 C28.6025205,16.217529 27.9281646,16.1187469 27.1889018,15.9736885 C26.5448919,15.8473186 25.9034108,15.6684428 25.2821604,15.4957966 C24.8783897,15.3827756 24.4771479,15.2644151 24.0750632,15.1451646 C23.5735109,14.9965464 23.0550998,14.8425887 22.5434322,14.7055397 C22.1649499,14.6040878 21.7721376,14.5275539 21.3911265,14.4545797 C21.2613129,14.4296617 21.1298135,14.4038537 21,14.3780458 C21.0059006,14.3798257 21.0118012,14.3816055 21.0177018,14.3842753 C21.4787927,14.5435726 21.9407266,14.7055397 22.4026604,14.8683967 C22.4835831,14.8959845 22.5645058,14.9244622 22.6462715,14.9511601 C22.8435206,15.0170148 23.0475133,15.0855393 23.2430765,15.1709725 C23.7581159,15.3961246 24.3009724,15.6444148 25.0014597,15.9754683 C25.3167211,16.1240865 25.6471555,16.1828218 25.9952918,16.2460068 C26.144493,16.2718147 26.2920084,16.2985126 26.4386808,16.3323299 C26.8222208,16.4204328 27.2057607,16.505866 27.5901436,16.5921891 L28.0149879,16.6865216 C28.9649868,16.9001046 29.9251011,16.9303622 30.9062891,16.9437111 C31.044532,16.9454909 31.182775,16.9499406 31.3218609,16.9543902 C31.4381873,16.9588399 31.5553567,16.9623996 31.672526,16.9650694 C31.8343715,16.9677392 31.9962169,16.9748586 32.1580623,16.981978 C32.5264293,16.9971068 32.9091263,17.0131255 33.2774932,16.982868 C33.893686,16.932142 34.5191511,16.8413693 35.1235427,16.7532663 C35.2938175,16.7283483 35.4632495,16.7034303 35.6326814,16.6794022 C35.9951477,16.6277863 36.3205245,16.5797301 36.6416865,16.4951869 C37.0572584,16.3848357 37.4837885,16.2495665 37.9086328,16.092049 C38.4624476,15.8891452 39.0280637,15.9140632 39.5076993,15.9647892 C39.8474062,16.0012763 40.187113,16.0457727 40.5268198,16.0893793 C41.2922138,16.1899412 42.0837391,16.293173 42.8685209,16.2985126 C42.9367994,16.2985126 43.0025491,16.3127514 43.0666129,16.3252104 C43.1407921,16.3412292 43.2115995,16.3545781 43.2722915,16.3456788 C43.7873309,16.2673651 44.1607555,16.1507844 44.4819175,15.9638993 C44.5729556,15.9113935 44.6648366,15.8597776 44.7575605,15.8081617 C45.0652354,15.6355155 45.3830257,15.4566397 45.6603545,15.2368273 C46.1104872,14.877296 46.465367,14.3691465 46.7148787,13.7257278 C47.1886137,12.5056352 47.0714444,11.3896642 46.3675854,10.4080726 C46.2917203,10.3012811 46.1930958,10.2122882 46.0885706,10.1179557 C46.0472663,10.0796888 46.005962,10.0423117 45.9655006,10.0031549 C45.4993521,9.55107093 45.0778796,9.28142244 44.6395482,9.1541626 C43.9963812,8.96816744 43.32624,8.98418616 42.698246,9.02957254 C42.1090275,9.07228913 41.4953635,9.21289791 40.8226935,9.45940824 C40.768745,9.47898668 40.7139536,9.49678526 40.6591622,9.51547377 C40.553794,9.54929107 40.4551695,9.58132851 40.3607596,9.62760482 C40.3514872,9.63383432 40.3346283,9.66765163 40.3219842,9.69256964 L40.3784615,9.68456028 C40.4897302,9.6667617 40.600999,9.64985305 40.7114247,9.62671489 C40.7569438,9.61692567 40.8007769,9.60090695 40.8462959,9.58577816 C40.9263757,9.55819036 41.0089843,9.52971263 41.0983365,9.5288227 L41.1497561,9.5288227 C41.8856471,9.52526299 42.6501981,9.52170327 43.4004191,9.54929107 C43.693764,9.56086015 44.0182978,9.61692567 44.3647482,9.71748765 C44.8275249,9.85186693 45.239725,10.114396 45.6637263,10.5415619 C46.0295644,10.9099925 46.2403007,11.3558469 46.327124,11.94409 C46.4560946,12.82156 46.2209129,13.6331752 45.607249,14.4243221 C45.1402575,15.027694 44.5603114,15.3952346 43.8834266,15.5189348 C43.6533026,15.5607614 43.418121,15.5901291 43.1913688,15.6177169 L43.0438534,15.6364054 C42.2801453,15.7334077 41.5206519,15.6141572 40.7872898,15.5011362 L40.722383,15.491347 C40.5866689,15.4699887 40.4501118,15.4477404 40.3143977,15.4254922 C39.8423485,15.3471785 39.3534404,15.2661949 38.8670612,15.2537359 C38.5374697,15.2475064 38.2222083,15.3169209 37.9027322,15.4708786 C37.0892903,15.8624474 36.2573036,16.0858195 35.4295317,16.1356556 C35.2912887,16.1445549 35.1522028,16.1507844 35.0139598,16.1587937" id="Fill-44"></path>
                <path d="M38.9257544,9.33915252 C38.8182587,9.23361371 38.7124295,9.12569433 38.6066004,9.01698143 C38.3157785,8.71861609 38.0141238,8.40993493 37.681637,8.15441993 C37.1808234,7.77273449 36.619179,7.45611808 36.0758671,7.14981749 L35.9142069,7.05856213 C35.5250556,6.83478813 35.1209049,6.60466593 34.6692561,6.51817172 C34.4467649,6.47532138 34.2267736,6.43009046 34.005949,6.38406602 C33.3893067,6.25710205 32.7509986,6.12617045 32.1101907,6.06824314 C31.6935405,6.03094747 31.2618909,6 30.8235749,6 C30.449423,6 30.0719379,6.02301222 29.6952862,6.08252658 C29.6077896,6.09601651 29.5236263,6.11902873 29.4327965,6.14283447 C29.3153012,6.17457546 29.1919727,6.20710998 29.0653111,6.21742581 C28.2453435,6.28804952 27.4978731,6.61736232 26.7737351,6.93477226 L26.5270781,7.04348516 C26.2320898,7.17203618 25.9737667,7.33708935 25.7379427,7.54816696 C25.5512834,7.71718775 25.3446249,7.89255674 25.1121341,8.03063006 C24.7946467,8.22028249 24.5413233,8.48611332 24.2954997,8.74321536 L24.229669,8.81225202 C24.0246771,9.0257102 23.8305181,9.25583241 23.6446921,9.47881289 L23.5588622,9.58038407 C23.5196971,9.62720203 23.4921982,9.69068402 23.463866,9.75337248 L23.4530331,9.7795588 C23.4072015,9.8787494 23.3655365,9.97873353 23.3222049,10.0787177 C23.2388749,10.2699571 23.1555448,10.4675448 23.0597153,10.6587843 C23.0030509,10.7706713 22.9672189,10.8658943 23.0438826,11 C23.058882,10.9793684 23.0722148,10.9595302 23.0872142,10.9396921 C23.1580447,10.8420886 23.2213756,10.7587684 23.2322085,10.6786224 C23.2855397,10.3255039 23.5030311,10.0795112 23.7130228,9.84145374 C23.7805201,9.7668624 23.8463508,9.69227107 23.9046819,9.61529916 C24.1280064,9.32566259 24.4254946,9.08760514 24.7146498,8.85748294 C24.8021464,8.78765275 24.8896429,8.71782257 24.9746395,8.64719886 C25.0738023,8.56467227 25.1854645,8.49880971 25.2946269,8.43612125 C25.3596243,8.39803206 25.4237884,8.35994287 25.4854527,8.3194731 C25.602948,8.23932709 25.7196101,8.15600698 25.8346055,8.07189335 C26.0604299,7.90922076 26.2945873,7.74099349 26.5454107,7.60530075 C27.6387008,7.01491827 28.8728187,6.65545152 30.2152656,6.53880336 C30.9452367,6.47532138 31.6593751,6.52848754 32.5060083,6.6292652 C33.4359715,6.74035867 34.3651015,6.9712744 35.3450627,7.33629583 C36.0350354,7.59181082 36.5683477,7.87192509 37.0208298,8.21631487 L37.1891564,8.34248532 C37.6241392,8.67021108 38.0732881,9.00904618 38.4332739,9.4343755 C38.6074337,9.64069195 38.758261,9.70972861 38.9599197,9.67322647 C39.0224173,9.52642438 39.0124177,9.4248532 38.9257544,9.33915252" id="Fill-45"></path>
                <path d="M29.976858,3.82862522 C29.8327117,3.36715576 29.5958397,2.95365265 29.2738287,2.599694 C29.2325237,2.55503566 29.1903756,2.51120434 29.1473846,2.46737301 C29.0571878,2.37474831 28.9627762,2.27798859 28.8852239,2.16799676 C28.5927165,1.75118563 28.1805087,1.49067868 27.7438551,1.21445861 L27.5651474,1.10115876 C27.4091997,1.000264 27.2406075,0.939065544 27.0618998,0.873732053 C26.9548438,0.834862762 26.8494737,0.79599347 26.7457896,0.748854117 C25.6937746,0.269190519 24.654404,0.0277047078 23.5686706,0.0111645837 L23.3334846,0.00702955273 C23.0081018,-0.000413503101 22.6734464,-0.00620254652 22.3463776,0.0128185961 L22.3008577,0.0152996148 C21.951872,0.0351477636 21.5902419,0.0558229187 21.2724457,0.163333725 C21.0060701,0.252650395 20.7346367,0.330388978 20.4741619,0.404819536 C20.3839651,0.430456729 20.2929253,0.451131884 20.2010426,0.472634045 C20.0147483,0.515638368 19.8394125,0.556161672 19.6817788,0.633073248 C19.2569266,0.840651805 18.775596,1.07552157 18.4139659,1.45842544 C18.3195543,1.55849319 18.2234568,1.65525292 18.1256733,1.75201264 C17.8888014,1.99019043 17.6418139,2.23746528 17.4572055,2.51037733 C17.1958877,2.89741623 17.0534273,3.32084341 17.0433118,3.73682753 L17.037411,3.97996735 C17.0289814,4.31159684 17.0205518,4.64405333 17.0205518,4.97568282 C17.0205518,5.32385243 16.995263,5.53722003 16.8603893,5.66540599 C16.7255156,5.79441896 16.5055028,5.8134401 16.1539882,5.80599705 C15.9078437,5.799381 15.6633851,5.78780291 15.4172405,5.77622482 C15.2646647,5.76960878 15.1129317,5.76216572 14.9603558,5.75637668 C13.3865482,5.69600522 12.1844862,5.80930507 11.0684062,6.1194324 C10.9301607,6.15830169 10.7927581,6.20296003 10.6561984,6.24679135 C10.4555738,6.31129784 10.2498914,6.37828534 10.0399942,6.4262517 C9.70702468,6.50233627 9.38754257,6.6396193 9.06384566,6.84554385 C8.81348632,7.00350203 8.54036705,7.16642225 8.17789395,7.37400081 C7.54820229,7.73540252 7.11492049,8.23822229 6.8915359,8.87005503 C6.86118931,8.95606368 6.84517306,9.04868837 6.82915681,9.1462751 C6.81566943,9.22401369 6.80302502,9.30340628 6.78195101,9.37949085 C6.62010255,9.97162729 6.64370545,10.4165566 6.85866043,10.8226167 C6.88394925,10.870583 6.87889149,10.9202034 6.87467668,10.9640347 C6.87383372,10.9789208 6.87130484,10.993807 6.87130484,11.0086931 L6.87130484,11.0864317 L6.73221632,11.1062798 C6.69175421,11.1120688 6.65719282,11.1170309 6.62178847,11.1203389 C6.42875047,11.135225 6.23571246,11.1484571 6.04267446,11.1616892 C5.61866522,11.1914614 5.17948269,11.2228877 4.75041569,11.268373 C4.26992808,11.3188204 3.885538,11.404002 3.54329595,11.534669 C3.39746374,11.5909054 3.24488785,11.6281207 3.09821269,11.663682 C2.91023245,11.7099943 2.71635149,11.7579607 2.53595789,11.8456233 C2.31257331,11.9539612 2.08160207,12.0532019 1.85906044,12.1499616 C1.53283465,12.2913797 1.19565036,12.4377598 0.877011211,12.6114311 C0.127619137,13.0199722 -0.079749198,13.398741 0.0256208912,14.1686838 C0.0382653019,14.2629625 0.0888429446,14.3746083 0.172296055,14.4928702 C0.401581369,14.8170566 0.764054476,14.9675718 1.17879115,15.1164329 C1.87254781,15.3653617 2.55787487,15.4538514 3.21791311,15.3802479 C3.92009939,15.3008553 4.62228566,15.2173276 5.32362897,15.132973 C7.28941336,14.8972762 9.29397393,14.5367015 11.2976915,14.6061701 C14.1721876,14.7054108 16.9472142,15.5861724 19.805694,15.8342743 C20.0821851,15.8582574 20.3578333,15.8822406 20.6334814,15.9087048 C20.8560231,15.931034 21.0869943,15.92938 21.3112219,15.92938 C21.3567417,15.928553 21.4014187,15.928553 21.4469385,15.928553 C21.480657,15.928553 21.5143754,15.928553 21.5472509,15.92938 C21.780751,15.931034 22.0150941,15.9484011 22.2418505,15.9649412 C22.6624879,15.9955405 23.0974556,16.0269667 23.5256796,15.9616332 C23.8249307,15.9161479 24.1334543,15.9136669 24.4310195,15.9103588 C24.568422,15.9095318 24.7049817,15.9087048 24.8423843,15.9029158 C24.999175,15.8962997 25.0640829,15.8665275 25.084314,15.7730758 C25.041323,15.7598437 24.998332,15.7466116 24.955341,15.7333795 C24.7134113,15.6572949 24.484126,15.5861724 24.227023,15.6010585 C23.7490642,15.6283497 23.2618329,15.6134636 22.7914609,15.5985775 L22.6093814,15.5927885 C22.2823126,15.5836914 21.951029,15.5539192 21.630704,15.5249739 L21.5320776,15.5167039 C21.1207127,15.4803156 20.7093479,15.4389653 20.298826,15.397615 L20.1159036,15.3794209 C19.9700714,15.3645347 19.8259251,15.3479946 19.6809358,15.3322815 C19.5460621,15.3173954 19.4120314,15.3025093 19.2780006,15.2892772 C19.2147786,15.2826611 19.1507135,15.2776991 19.0883345,15.2735641 C18.9964517,15.266948 18.904569,15.260332 18.8143722,15.2479269 C18.0026011,15.138762 17.1916729,15.0262892 16.3815876,14.9121623 C16.2795894,14.8981032 16.1818059,14.8749471 16.0747499,14.8484829 C15.9356614,14.8145756 15.7965729,14.7740523 15.6583273,14.733529 C15.3708777,14.6491744 15.0741555,14.5623387 14.7816482,14.5391826 C14.4318195,14.5118913 14.0895774,14.4316717 13.7582939,14.3539332 C13.3342846,14.2555194 12.9018458,14.1537977 12.4517048,14.1653757 C12.4163004,14.1637217 12.3977553,14.1595867 12.3808961,14.1546247 C12.2232624,14.1322955 12.0841739,14.1091393 11.9459283,14.0859832 C11.6475202,14.0363628 11.3406825,13.9842614 11.0422744,13.9966665 C10.3889799,14.0247847 9.64886039,14.0570379 8.97533478,14.2489034 C8.5007479,14.3853594 8.01267365,14.4358068 7.54145861,14.4837731 C7.14948188,14.5242964 6.74486073,14.5664738 6.35625585,14.6574444 C5.93308957,14.7558582 5.49306408,14.7972085 5.06821188,14.8377318 C4.82543919,14.860888 4.5742369,14.8848711 4.33146421,14.9187784 C3.15890586,15.0825256 2.14482412,14.9758418 1.22852583,14.5921109 C0.836549097,14.4275367 0.640982212,14.195975 0.596305294,13.8420163 C0.538141005,13.3805469 0.705890187,13.0282422 1.08269363,12.8223177 C1.90795216,12.3715993 2.90348877,11.8828386 4.02968428,11.6785681 C4.64251672,11.5669223 5.29665423,11.4991077 6.0890373,11.4660275 C6.93958466,11.4304662 7.84323854,11.533842 8.9256001,11.7918679 C9.40524474,11.9068218 9.88151755,12.061472 10.3426171,12.2103331 C10.5120522,12.2649155 10.6814873,12.3203249 10.8509224,12.3732533 C10.6983465,12.2740126 10.5533572,12.192966 10.408368,12.1259785 C9.87224498,11.8778766 9.33190716,11.6380448 8.79156935,11.398213 C8.50664862,11.271681 8.2217279,11.1443221 7.93765014,11.0169631 C7.8398667,10.9731318 7.73955438,10.9284735 7.70583595,10.8416378 C7.6746464,10.7638992 7.63839909,10.6878147 7.60130882,10.6117301 C7.46980695,10.3404721 7.33409027,10.060117 7.46390622,9.71112034 L7.49846761,9.62014966 C7.55326006,9.4795586 7.60973843,9.3331785 7.61395323,9.19672248 C7.63249837,8.64593635 7.9856989,8.30934482 8.32709799,7.98433139 C9.13212547,7.21686963 10.1386206,6.88606715 11.1872637,6.58751791 C11.4865147,6.50233627 11.7992532,6.45106189 12.1018761,6.40061451 C12.2013454,6.38407438 12.3016578,6.36753426 12.4011271,6.34934012 C13.2365012,6.20213302 13.9766207,6.14176157 14.6712203,6.16491774 C15.3911088,6.18890092 16.1244846,6.16739876 16.8148694,6.14258857 C17.2076891,6.12852947 17.4968246,5.84321233 17.5339149,5.43301725 C17.5701622,5.02034116 17.6097814,4.60931907 17.6536153,4.19829699 C17.7100937,3.68141811 17.8609837,3.26543399 18.1164008,2.92636145 C18.2521174,2.7460741 18.3987926,2.56992178 18.539567,2.3995585 C18.6027891,2.32347393 18.6660111,2.24738936 18.7275473,2.17130479 C19.0461864,1.77930385 19.5030711,1.44932837 20.0484667,1.21776663 C20.7253642,0.929141469 21.5329205,0.615706118 22.3969553,0.480077101 C23.0114736,0.382490369 23.66814,0.390760431 24.5237451,0.504887287 C25.1391065,0.586760901 25.7114768,0.797647483 26.3420114,1.04326833 C26.4187208,1.07386755 26.499645,1.09619672 26.5797263,1.11852589 C26.6960549,1.15077913 26.8149124,1.18385938 26.9261832,1.23844179 C27.7312106,1.63871279 28.4333969,2.23663828 29.2021771,3.17611732 C29.3884714,3.40354403 29.5494769,3.64337583 29.7205979,3.89892074 C29.7804481,3.9865834 29.8402983,4.07672708 29.9026774,4.16769776 C30.0147912,4.04943587 30.0156342,3.95102213 29.976858,3.82862522" id="Fill-46"></path>
            </g>
        </g>
    </g>
</svg>